<?xml version="1.0" encoding="UTF-8"?>
<svg id="Calque_2" data-name="Calque 2" xmlns="http://www.w3.org/2000/svg" viewBox="0 0 138.24 138.48">
  <defs>
    <style>
      .cls-1 {
        fill: #fff;
      }
    </style>
  </defs>
  <g id="Calque_1-2" data-name="Calque 1">
    <g>
      <path class="cls-1" d="m0,138.48V0h138.24v138.48H0ZM38.86,20.79c-.06.84-.12,1.68-.19,2.52.06,0,.13.01.19.02.1-.34.2-.68.33-1.12.21.26.33.4.6.73-.24-.93.3-1.94-.96-2.12.33-.53.73-1.03.95-1.6.11-.28-.03-.81-.25-1.01-.34-.3-.85-.42-1.29-.61-.12.05-.24.1-.36.15.33,1.01.66,2.02.98,3.04Zm-8.41,47.02c.72.59,1.33,3.33.7,3.78-.16-.28-.33-.58-.51-.91-.83,1.01-1.48.73,2.57,3.85,2.49-1.96,2.75-6.86.43-9.36.71-.63.47-1.23-.15-1.77-1.37-1.21-2.65-2.53-4.13-3.59-1.5-1.08-3.26-1.57-5.41-1.16.38.84.71,1.59,1.07,2.39-.5.14-1.12.32-1.72.49.84,1.43.04,3.4,1.56,4.87.26-1.16.44-2.08.66-2.98.17-.69.61-1.09,1.16-.44,1.32,1.58,2.54,3.24,3.79,4.86-1.13-1.02-2.35-1.87-3.93-2.04-.2-.02-.38-.3-.71-.58-.18.6-.7,1.43-.49,1.72,1.06,1.43,2.31,2.72,3.61,4.18.44-.75.7-1.19.97-1.65-1.29-.2-1.51-.76-.84-1.94.34.86.42.87,1.36.27ZM107.08,16.52c-1.22-1.39-2.09-3.08-3.8-4.02-1.8-1-3.55-2.06-5.33-3.1-.08-.04-.12-.15-.2-.26.36.03.65.05.94.07-2.06-.93-4.15-1.72-6.25-2.46-3.26-1.14-5.06-1.42-6.52-1.09.51.08,1.49,0,1.6.28.42,1.04,1.26.92,2.04,1.12.34.09.69.35.9.64.83,1.09,1.87,1.52,2.71,1.05-.51-.24-1.02-.49-1.53-.73,1.7-.65,2.25.89,3.35,1.43h-1.71c-.06.09-.12.17-.18.26l1.86,1.43c-.07.06-.14.12-.21.18-.14,0-.27-.01-.42-.02.3.52.57.97.96,1.64-1.41-.82-2.54-1.47-3.66-2.12-.05.08-.11.16-.16.25,1.08.85,2.16,1.69,3.23,2.54l-.16.19c-.53-.29-1.07-.58-1.6-.87-.08.11-.16.22-.23.33,2.9,2.47,5.8,4.94,8.7,7.41-.09.12-.18.24-.27.36-2.48-1.69-4.96-3.38-7.49-5.1-.07.16-.21.34-.16.43.06.14.25.21.39.32,1.77,1.37,4.02,2.18,5.04,4.43-.42.03-.8.05-1.18.07.07-.09.14-.18.21-.27-2.03-1.66-3.93-3.52-6.14-4.9-2.15-1.35-4.61-2.2-6.93-3.28-.03.05-.07.1-.1.15l2.01,1.5-.09.2c-.43-.09-.86-.18-1.3-.26,1.21.85,1.44,2.57,2.9,3.21.29.13.43.61.64.94-.32.18-.65.36-.97.54-.21-.19-.4-.45-.65-.57-.66-.33-1.38-.55-2.02-.91-.33-.19-.55-.58-.92-.99-.19,1.62,2.14,3.02,3.64,2.42.02.67-.32,1.37.64,1.81.89.41,1.67,1.07,2.5,1.63-.07.12-.14.24-.22.36-3-1.03-5.45-3.22-8.43-4.29.27.24.55.49.82.73-.03.05-.07.11-.1.16-1.92-.78-3.84-1.57-5.76-2.35-.08.19-.16.37-.24.56,3.03,1.44,6.05,2.89,9.08,4.33-.04.09-.08.18-.11.27-.68-.2-1.36-.4-2.05-.59-.07.11-.13.23-.2.34.78.66,1.56,1.31,2.47,2.08h-1.54c.76.44,1.32.76,1.96,1.13-.3.15-.44.22-.64.32,1.29.62,1.33.72.74,1.43-.35-.69-3.64-1.91-5.22-1.74,2.78,1.82,5.3,3.47,7.99,5.22-3.54-.93-6.91-1.82-10.27-2.71-.03.09-.07.18-.1.26.31.25.62.51.93.76-2.25-.59-3.27-3.14-5.68-3.44-.11.11-.22.23-.32.34,1.41,1.35,2.81,2.69,4.22,4.04-.14-.07-.28-.22-.41-.21-.58.05-1.16.15-1.75.23.34.37.65.79,1.04,1.11.26.21.67.24.96.43.93.59,1.84,1.21,2.75,1.81q-1.59.28-1.82,1.16c.92-.37,1.72-.43,1.92.78-.5.69-1.03.65-1.64.16-.98-.78-2-1.53-3.05-2.33.14,1.03-.5,1-1.07.76-1.88-.81-3.76-1.64-5.59-2.56-1.6-.81-3.12-1.76-4.69-2.63-.19-.1-.44-.09-.66-.13-.04.1-.08.19-.12.29.59.42,1.17.84,1.9,1.36h-1.43c.71,1.11,2.73,1.07,2.14,2.91,0,.02.04.07.08.08.95.5,1.9.99,2.85,1.49-.47,1.26-1.25-.08-1.58.04.44.58,1.07,1.14,1.35,1.84.38.96,1.43-.39,1.83.7.11.3,1.31.21,2.01.29.03-.15.05-.3.08-.44-.51-.19-1.06-.31-1.52-.58-.83-.48-2.11-.47-2.17-1.86.32.11.68.16.94.34,1.23.89,2.43,1.89,4.06,1.74,1.12-.1,1.5-.03,2.32,1-.51-.11-.98-.22-1.46-.33-.02.09-.04.19-.06.28.86.3,1.72.61,2.67.94-.07-.33-.1-.47-.15-.69,2.67.94,4.64.69,5.63-1.19-.71-.24-1.39-.47-2.23-.75.86-.14,1.54-.25,2.22-.36-.01-.08-.02-.15-.03-.23-.33-.14-.66-.28-1-.42,1.61-.17,3.15-.26,4.67-.14,1.24.1,2.68-.54,3.16-1.63-.31-.25-.62-.5-.93-.75.04-.08.09-.16.13-.24.73.05,1.47.09,2.22.14-.33.48-.54.8-.75,1.11-.76,1.12-1.44,2.26-3.13,2.12-.8-.07-1.64.27-2.46.42.02.11.04.21.06.32.21.02.42.03.63.05.02.09.03.17.05.26-.8.3-1.59.6-2.39.9l.17.4c1.57-.17,3.01-.68,4.22-1.89-.17.34-.34.67-.57,1.13.56-.27.95-.47,1.35-.66l.32.39c-.31.32-.58.82-.95.92-.91.26-1.51.76-1.99,1.57-.6,1-1.37,1.68-2.75,1.43-.78-.14-1.63.24-2.45.29-.56.04-1.37.13-1.66-.19-.79-.85-1.52-1.01-2.5-.43-.28.16-.69.26-.99.19-3.36-.82-6.7-1.7-10.06-2.52-.43-.1-.9-.01-1.35-.01-.01.09-.02.19-.03.28.55.25,1.11.49,1.66.74-.32.29-.74.44-.99.29-.57-.33-1.05-.82-1.59-1.21-.76-.55-1.51-1.12-2.31-1.59-.39-.23-.96-.15-1.37-.37-1.05-.57-2.05-1.22-3.07-1.84-.06.11-.13.21-.19.32,2.27,1.32,3.86,3.68,6.43,4.16.33.6.57,1.02.94,1.67-.82-.16-1.49-.3-2.17-.43l-.17.37c1.02.54,2.19,1.7,3.01,1.49,1.64-.43,2.3.46,3.24,1.28.38.34.98.46,1.51.6.77.2,1.57.27,2.33.49,1.16.33,2.3.73,3.44,1.1.03-.13.07-.25.1-.38-.34-.12-.68-.24-1.02-.36.02-.1.05-.19.07-.29.52.09,1.03.2,1.56.27.84.11,2.02.58,2.46.2,1.65-1.42,3.73-.63,5.47-1.4.81-.36,1.75-.42,2.6-.69.57-.19,1.1-.52,1.65-.79-.06.65-.23,1.22-.6,1.56-.84.78-1.71,1.61-2.71,2.14-2.42,1.29-4.62,3.25-7.71,2.75-.76-.12-1.61.32-2.36.18-2.22-.41-4.49-.76-6.58-1.53-2.31-.86-4.7-1.68-6.5-3.57-.5-.53-1.32-.77-2.01-1.13-.56-.29-1.13-.55-1.7-.83-.27-.14-.53-.29-.8-.44-.08.11-.15.22-.23.32.72.63,1.44,1.25,2.16,1.88-.07.1-.15.2-.22.3-1.48-.86-2.97-1.72-4.45-2.57-.09-.05-.28-.11-.31-.07-.58.73-.83-.05-1.03-.31-.38-.5-.93-.86-.85-1.74.05-.55-.79-1.14-1.03-1.78-.51-1.34-.66-1.44-1.94-.78-.99-1.12-1.99-2.25-3.15-3.57-.14,1.47.15,2.51,1.02,3.38.53.54,1.04,1.1,1.5,1.69.1.13-.01.42-.04.9-.63-.74-1.05-1.24-1.41-1.66-1.09,1.06-1.39-.73-2.33-.41.61,1.11,1.2,2.2,1.89,3.45-.66-.11-1.07-.17-1.34-.22-.11.49-.2.89-.29,1.29.04-.12.08-.25.13-.37.22.39.68.83.62,1.18-.23,1.26-1.43.27-2.12.8.99.39,1.93.77,2.94,1.17-.25.28-.43.5-.65.75q2.44.62,3.03,2c1.37.03,4.51,2.93,4.51,4.14.77.48,1.96.64,1.33,2.04-.06.13.03.45.15.53.7.46,1.42.88,2.41,1.48-.22-.7-.32-1.04-.47-1.51,1.09.3,1.55.76,1,1.67.77.68,1.48,1.3,2.19,1.93.3-.32.52-.56,1-1.08.11.65.34,1.26.22,1.34-.43.29-1.03.62-1.47.52-.95-.22-1.84-.7-2.75-1.09-.65-.28-1.29-.6-1.93-.9.39.86,1.67.99,1.22,2.54-1.08-.48-2.34-.7-3.07-1.44-1.76-1.81-4.1-1.84-6.26-2.34-1.03-.24-2.39-.19-3.24.32-.72.43-1.23.42-1.81.2-1.62-.61-3.83-.33-4.15-2.89-1.63.85-.75,1.98-.62,2.97-.97-.7-1.85-1.81-2.78-1.85-.89-.04-1.83,1.04-2.91,1.74-.05-.04-.54-.33-.5-.48.36-1.38-1.1-1.78-1.27-2.93-1.01,2.61.78,4.3,1.68,6.28-.57.47-1.12.94-1.48,1.23,1.61,1.69,3.22,3.37,4.83,5.07.14.15.28.34.32.53.14.71.24,1.42.36,2.13.14.02.28.03.42.05.47-1.2,1.09-2.36,1.37-3.6.29-1.27.25-2.61.35-3.9,1.7.65,3.08,2.96,2.82,4.8-.02.12-.03.24-.07.35-.52,1.4.22,2.88,1.96,3.58-.22-.4-.3-.71-.5-.9-.51-.48-.56-.96-.1-1.46.41-.44.78-.45,1.43-.17,1.71.74,2.48,2.87,4.59,2.97.2,0,.39.38.57.58,1.14,1.27,2.24,2.58,3.45,3.77.32.31,1,.26,1.52.37-.02-.62.13-1.33-.12-1.84-.21-.42-.89-.61-1.38-.87-1.36-.71-2.35-2.45-2.01-3.64.8.24,1.58.54,2.4.68.34.06.73-.22,1.1-.35-.24-.24-.47-.49-.73-.71-.23-.2-.59-.31-.71-.56-.23-.45-.32-.96-.46-1.43.54-.05,1.24-.32,1.78.45.11.16.6.05.91.06.51,0,1.01,0,1.52,0-.28.35-.66.41-.96.6-.38.23-1.02.6-.99.83.08.56.48,1.07.75,1.59.5-.3,1.03-.57,1.5-.91.17-.12.18-.43.29-.65,1.07-2.04,3.51-3.25,5.71-1.69.32.23.98.23,1.37.06,1.09-.48,2.12-1.1,3.29-1.73-.59-1.07.21-1.18,1.13-1.26.25-.02.48-.26.73-.35,1.04-.36,2.08-.9,3.14-.96.49-.03,1.03.91,1.72,1.58-1.12.99-2.07,2.1-3.25,2.81-1.29.77-3.11,3.23-3.26,4.74-.06.66-.51,1.31-.9,1.89-.34.5-1.21.89-1.21,1.33,0,1.29-.87,1.26-1.66,1.42-.65.13-1.52-.02-1.93.35-1.15,1.04-3.01-.08-3.93,1.41-.01.02-.08,0-.11,0-.75-.04-1.5-.09-2.28-.13.32.87.37,1.82.81,2.08.84.48-.04,1.18.45,1.61.53.47,1.04.99,1.52,1.51.14.15.27.45.2.59-.06.14-.38.23-.58.23-.37,0-.73-.1-1.1-.16-.03.08-.06.16-.09.24.22.19.44.39.66.58-1.73.08-3.32.74-4.97-.64-1.53-1.28-3.17-2.33-4.01-4.25-.18-.42-.74-.68-1.13-1-1.34-1.11-2.81-2.1-4-3.34-1.11-1.15-1.93-2.57-2.88-3.88-.09.05-.18.1-.27.16.47.84.93,1.69,1.42,2.52.64,1.09,1.25,2.14.19,3.36-.2.24-.18.91.02,1.18.15.21.78.23,1.12.12,2.2-.75,2.8-.62,4.14,1.33.37.54.82,1.51.59,1.88-.32.52-1.24.9-1.92.92-1.5.05-3.02-.13-4.52-.29-.28-.03-.7-.34-.76-.6-.31-1.22-.99-.96-1.82-.6-1.02.44-2.07.78-3.11,1.18-.28.11-.55.26-1.13.53.68.45,1.12.84,1.63,1.05,1.1.46,1.67,1.22,2.09,2.36.99,2.67,2.27,5.19,5.05,6.52.26.13.45.54.55.85.46,1.46.47,3.29,1.39,4.33,1.7,1.93,1.93,4.35,2.96,6.47.73,1.51,1.2,3.21,2.19,4.52,1.21,1.6,2.83,2.92,5,3.15,1.92.21,3.77.23,5.39-1.18,1.47-1.29,3.17-1.49,4.94-.48.26.15.58.26.88.3,1.88.3,2.43.89,2.6,2.74.25,2.81.56,5.62.77,8.44.14,1.82.11,3.66.25,5.48.03.41.34,1.05.67,1.15,3.64,1.15,7.36,1.89,11.2,1.43,5.29-.64,9.25-3.65,12.42-7.65,4.02-5.07,6.89-10.85,9.18-16.87,1.33-3.49,2.26-7.15,3.2-10.78.81-3.12,1.82-6.25,1.17-9.55-.1-.5-.32-1.06-.67-1.4-1.66-1.61-2.07-3.62-1.14-5.55.8-1.67.71-3.29.79-4.98.03-.65.19-1.37.53-1.9.54-.82,1.17-1.7,1.98-2.21,1.11-.69,1.14-1.44.85-2.59.1.27.2.54.3.81.17-.04.34-.08.5-.13.23-.79.48-1.58.7-2.37.29-1.05.85-2.12.79-3.16-.15-3.01,1.09-5.75,1.41-8.67.22-2.04.73-4.05,1.03-6.09.11-.78.21-1.66-.04-2.38-.63-1.82.29-3.51.22-5.27,0-.22.11-.48.25-.66.99-1.29.65-2.82.41-4.13-.29-1.6-1.17-3.08-1.78-4.62-.21-.53-.39-1.06-.69-1.88.34-1.35.33-1.35-1.34-2.11-.24-.11-.45-.3-.68-.46.04-.06.08-.11.12-.17.45.15.91.3,1.36.46-.78-1.61-1.72-3.01-2.71-4.38-.22-.31-.69-.44-.91-.75-.58-.78-1.09-1.61-1.63-2.43l.03.09Zm-44.25-.7c.06-.11.13-.21.19-.32-2.17-1.12-4.33-2.25-6.5-3.37,1.54.18,3.03.62,4.63-.32-.6-.19-1.02-.33-1.43-.46.02-.08.04-.17.06-.25,2.06.28,4.12.56,6.24.85-.1-.24-.17-.4-.23-.53.98-.14,1.94-.27,3.02-.42-.45-.28-.77-.48-1.08-.68.04-.13.09-.27.13-.4.53.16,1.06.32,1.59.48.54.16,1.08.33,1.66.5-.48-.71-.82-1.21-1.17-1.72.11-.13.23-.25.34-.38.93.4,1.86.81,2.79,1.21.91.4,1.81.8,2.72,1.2-2.13-2.42-7.4-4.35-9.24-3.54.64.26,1.21.49,1.78.73-1.36-.08-2.68-.28-3.85-.82-1.66-.75-3.24-.82-4.91-.19-.16.06-.36.04-.54.02-.39-.05-.78-.17-1.18-.17-.39,0-.78.15-1.17.19-2.05.18-4.1.28-6.14.54-1.76.22-3.34.82-4.26,2.56-.25.48-.8.8-1.22,1.2l-.2-.17c.27-.42.54-.84.94-1.45-1.27.68-2.31,1.23-3.63,1.94.72.28,1.06.42,1.42.55-.33.46-.61.87-.89,1.27-.05-.11-.1-.22-.15-.32-.73.27-1.46.55-2.19.8-.81.28-1.64.53-2.55.81.06.31.13.67.15.83h3.1c-.3-.4-.56-.75-1.04-1.39,1.64.15,2.91.27,4.42.41-.47-.5-.72-.76-1.07-1.13,1.19-.13,2.02,1.6,3.08.17.54,1.45,3.62,3.67,5.07,3.72-.17-.24-.32-.44-.57-.78h2.66c-.1-.53-.17-.86-.27-1.39,1.41.32,2.67.61,3.93.89.04-.06.08-.12.12-.18-.64-.43-1.28-.87-1.91-1.3.02-.07.04-.15.07-.22.99.13,1.98.25,3.16.4-.16-.5-.26-.8-.38-1.17,1.53.61,3.01,1.2,4.5,1.79Zm16.68-10.3c-.02-.11-.04-.22-.06-.34.82-.1,1.64-.21,2.46-.31-.01-.14-.02-.27-.03-.41-1.3,0-2.59.02-3.89,0-2.22-.04-4.47-.26-6.39,1.23-.23.18-.58.37-.61.59-.02.22.23.58.46.71,1.49.84,3,1.66,4.53,2.42.53.26,1.14.35,2.02.61-.37-.64-.54-.93-.82-1.41.64-.04,1.11-.06,1.59-.09q-.3-1.11,2.4-.82c-1.4-.31-2.8-.61-4.21-.92,4.43-.69,8.63.49,12.81,1.76.02-.13.05-.27.07-.4-2.07-.8-4.14-1.6-6.22-2.4.17-.18.3-.33.66-.71-1.81.18-3.29.33-4.77.48Zm-22.58,66.54c-.04-.1-.07-.21-.11-.31.47-.34.94-.68,1.4-1.04.41-.33.82-.67,1.2-1.04.53-.53,1.06-1.07,1.49-1.67.13-.18.07-.68-.09-.86-.14-.15-.65-.16-.83-.02-.82.62-1.81,1.19-2.29,2.03-.61,1.06-1.24,1.61-2.48,1.66-.34.01-.77.77-.93,1.26-.11.36.03,1.08.29,1.22,1.51.81,3.09.22,3.81-1.51-.5.1-.98.2-1.45.29ZM30.37,25.16c-.14-2.15.22-2.65,2.06-3.05,1.22-.26,1.34-.59.57-1.59-.3.07-.63.26-.91.2-1-.22-1.43.2-1.72,1.13-.3.96-1.11,1.72-.57,2.93.24.52-.12,1.32-.21,1.99.2.05.4.11.6.16.67-1.29,1.34-2.59,2.01-3.88-.13-.07-.26-.15-.4-.22-.44.71-.88,1.43-1.44,2.32Zm35.14,18.22c1.3,1.17,2.52,1.86,4.14,1.3-1.27-.53-2.21-1.96-4.14-1.3Zm9.89-5.42c-.06-.11-.11-.21-.17-.32-.42.2-.86.39-1.27.61-.13.07-.32.3-.29.38.07.19.26.47.41.47,1.31.03,2.62.01,3.92.01,0-.15,0-.29,0-.44-.97-.08-1.94-.16-3.03-.25.2-.22.31-.34.42-.47Zm3.52,1.56c1.38-.45,2.74.7,4.13-.05-1.38.31-2.73-1.49-4.13.05Zm-4.37,7.15c.01-.07.03-.14.04-.2-.93-.32-1.86-.65-3.03-1.05.12.55.17,1.2.28,1.21.89.08,1.8.05,2.7.05Zm-5.95-10.25c.12-.18.23-.36.35-.54-.76-.52-1.52-1.05-2.28-1.57-.13.19-.25.37-.38.56.77.52,1.54,1.04,2.31,1.55Zm-14.25-20.29c-.49,1.39-.07,1.97,1.41,2.13-.47-.72-.89-1.35-1.41-2.13Zm-23.8,16.63c-.68,1.61-.68,1.38,1.28,2.17-.41-.7-.8-1.36-1.28-2.17Zm8.8,14.25v-.48c-.76.14-1.51.27-2.41.44.99,1.12,1.67.2,2.41.05Zm8.34-30.24c-.1.1-.19.2-.29.3l2.28,2c.1-.12.2-.24.3-.36-.77-.65-1.53-1.3-2.3-1.95Zm-12.88,2.7c.18-.51.33-.9.45-1.29.1-.32.16-.64.23-.96-.14-.02-.28-.04-.42-.06.22.81-1.69,1.31-.27,2.31Z"/>
      <path d="m69.89,34.32c-.95-.49-1.9-.99-2.86-1.49-.03-.02-.08-.07-.08-.08.59-1.84-1.43-1.81-2.14-2.91h1.43c-.73-.52-1.31-.94-1.9-1.36.04-.1.08-.19.12-.29.22.04.47.03.66.13,1.57.87,3.09,1.82,4.69,2.63,1.83.92,3.71,1.75,5.59,2.56.57.24,1.21.27,1.07-.76,1.05.8,2.06,1.54,3.05,2.33.61.49,1.14.53,1.64-.16-.2-1.21-1-1.15-1.92-.78q.22-.88,1.82-1.16c-.92-.61-1.82-1.23-2.75-1.81-.29-.19-.7-.21-.96-.43-.39-.32-.7-.73-1.04-1.11.58-.08,1.16-.18,1.75-.23.13-.01.27.13.41.21-1.41-1.35-2.82-2.69-4.22-4.04.11-.11.22-.23.32-.34,2.41.3,3.43,2.85,5.68,3.44-.31-.25-.62-.51-.93-.76.03-.09.07-.18.1-.26,3.37.89,6.74,1.78,10.27,2.71-2.69-1.76-5.21-3.41-7.99-5.22,1.57-.17,4.87,1.05,5.22,1.74.59-.71.55-.81-.74-1.43.21-.11.34-.17.64-.32-.64-.37-1.2-.69-1.96-1.13h1.54c-.91-.76-1.69-1.42-2.47-2.08.07-.11.13-.23.2-.34.68.2,1.36.4,2.05.59.04-.09.08-.18.11-.27-3.03-1.44-6.05-2.89-9.08-4.33.08-.19.16-.37.24-.56,1.92.78,3.84,1.57,5.76,2.35.03-.05.07-.11.1-.16-.27-.24-.55-.49-.82-.73,2.98,1.07,5.43,3.26,8.43,4.29.07-.12.14-.24.22-.36-.83-.55-1.6-1.22-2.5-1.63-.96-.44-.62-1.14-.64-1.81,0,0-.05.05-.05.05l.97-.54c-.21-.32-.34-.81-.64-.94-1.45-.64-1.68-2.35-2.9-3.21.43.09.86.18,1.3.26l.09-.2-2.01-1.5s.07-.1.1-.15c2.32,1.07,4.78,1.93,6.93,3.28,2.2,1.38,4.1,3.25,6.14,4.9-.07.09-.14.18-.21.27.38-.02.76-.05,1.18-.07-1.02-2.24-3.28-3.06-5.04-4.43-.14-.1-.33-.18-.39-.32-.04-.1.1-.27.16-.43,2.53,1.72,5.01,3.41,7.49,5.1.09-.12.18-.24.27-.36-2.9-2.47-5.8-4.94-8.7-7.41.08-.11.16-.22.23-.33.53.29,1.07.58,1.6.87l.16-.19c-1.08-.85-2.16-1.69-3.23-2.54.05-.08.11-.16.16-.25,1.13.65,2.25,1.3,3.66,2.12-.39-.67-.66-1.12-.96-1.64.15,0,.29.01.42.02.07-.06.14-.12.21-.18l-1.86-1.43c.06-.09.12-.17.18-.26h1.71c-1.1-.54-1.65-2.08-3.35-1.43.51.25,1.02.49,1.53.73-.85.47-1.88.04-2.71-1.05-.22-.28-.57-.55-.9-.64-.78-.2-1.63-.08-2.04-1.12-.11-.28-1.09-.2-1.6-.28,1.47-.33,3.27-.05,6.52,1.09,2.11.74,4.2,1.53,6.25,2.46-.29-.02-.58-.05-.94-.07.09.12.13.22.2.26,1.77,1.04,3.53,2.1,5.33,3.1,1.7.94,2.58,2.63,3.8,4.02-1.56-1.21-3.12-2.42-4.68-3.63-.07.08-.13.15-.2.23,1.21,1.11,2.4,2.24,3.66,3.29.24.2.78.03,1.19.03.54.81,1.05,1.65,1.63,2.43.23.31.69.44.91.75.99,1.36,1.94,2.76,2.71,4.38-.45-.15-.91-.3-1.36-.46-.04.06-.08.11-.12.17.22.16.43.35.68.46,1.67.76,1.67.76,1.34,2.11.3.81.48,1.35.69,1.88.61,1.54,1.49,3.03,1.78,4.62.24,1.31.58,2.84-.41,4.13-.14.18-.26.44-.25.66.07,1.76-.85,3.45-.22,5.27.25.71.15,1.6.04,2.38-.3,2.04-.81,4.05-1.03,6.09-.32,2.91-1.56,5.66-1.41,8.67.05,1.04-.5,2.11-.79,3.16-.22.79-.46,1.58-.7,2.37-.17.04-.34.08-.5.13-.1-.27-.2-.54-.3-.81.29,1.15.26,1.9-.85,2.59-.81.5-1.44,1.38-1.98,2.21-.35.53-.5,1.25-.53,1.9-.08,1.69.01,3.31-.79,4.98-.93,1.93-.52,3.93,1.14,5.55.35.34.57.9.67,1.4.65,3.3-.36,6.43-1.17,9.55-.94,3.63-1.87,7.28-3.2,10.78-2.29,6.02-5.15,11.81-9.18,16.87-3.17,3.99-7.13,7.01-12.42,7.65-3.84.46-7.56-.27-11.2-1.43-.32-.1-.63-.74-.67-1.15-.14-1.82-.11-3.66-.25-5.48-.21-2.82-.52-5.63-.77-8.44-.16-1.85-.72-2.44-2.6-2.74-.3-.05-.61-.15-.88-.3-1.77-1.01-3.47-.81-4.94.48-1.62,1.42-3.47,1.39-5.39,1.18-2.17-.23-3.79-1.55-5-3.15-.99-1.31-1.46-3.01-2.19-4.52-1.03-2.12-1.27-4.54-2.96-6.47-.92-1.04-.93-2.87-1.39-4.33-.1-.32-.29-.73-.55-.85-2.78-1.34-4.06-3.85-5.05-6.52-.42-1.14-1-1.9-2.09-2.36-.51-.21-.95-.6-1.63-1.05.58-.27.84-.42,1.13-.53,1.04-.4,2.09-.74,3.11-1.18.83-.36,1.51-.61,1.82.6.07.26.48.57.76.6,1.5.16,3.02.34,4.52.29.68-.02,1.6-.4,1.92-.92.23-.37-.22-1.34-.59-1.88-1.34-1.95-1.94-2.08-4.14-1.33-.34.12-.97.09-1.12-.12-.2-.27-.22-.94-.02-1.18,1.06-1.23.45-2.27-.19-3.36-.49-.83-.95-1.68-1.42-2.52.09-.05.18-.1.27-.16.95,1.3,1.77,2.73,2.88,3.88,1.2,1.25,2.66,2.24,4,3.34.39.32.94.58,1.13,1,.85,1.92,2.49,2.96,4.01,4.25,1.64,1.38,3.24.73,4.97.64-.22-.19-.44-.39-.66-.58.03-.08.06-.16.09-.24.37.06.73.16,1.1.16.2,0,.52-.09.58-.23.06-.15-.07-.45-.2-.59-.48-.53-.98-1.04-1.52-1.51-.49-.43.4-1.12-.45-1.61-.45-.26-.5-1.21-.81-2.08.78.05,1.53.09,2.28.13.04,0,.1.01.11,0,.93-1.49,2.78-.36,3.93-1.41.41-.37,1.28-.22,1.93-.35.8-.16,1.66-.13,1.66-1.42,0-.44.87-.82,1.21-1.33.39-.58.84-1.23.9-1.89.15-1.51,1.96-3.97,3.26-4.74,1.18-.71,2.13-1.81,3.25-2.81-.69-.67-1.23-1.61-1.72-1.58-1.06.06-2.1.6-3.14.96-.26.09-.48.33-.73.35-.92.08-1.72.19-1.13,1.26-1.17.63-2.2,1.25-3.29,1.73-.38.17-1.04.17-1.37-.06-2.2-1.55-4.64-.34-5.71,1.69-.11.21-.13.52-.29.65-.47.34-.99.61-1.5.91-.27-.53-.67-1.04-.75-1.59-.03-.23.61-.6.99-.83.31-.18.68-.25.96-.6-.51,0-1.01,0-1.52,0-.31,0-.8.1-.91-.06-.54-.77-1.24-.5-1.78-.45.14.47.23.98.46,1.43.12.24.48.36.71.56.26.22.49.47.73.71-.37.13-.76.4-1.1.35-.81-.14-1.6-.44-2.4-.68-.34,1.19.65,2.93,2.01,3.64.49.26,1.17.45,1.38.87.25.51.1,1.22.12,1.84-.52-.11-1.2-.06-1.52-.37-1.21-1.19-2.31-2.5-3.45-3.77-.19-.21-.37-.57-.57-.58-2.11-.09-2.88-2.23-4.59-2.97-.65-.28-1.02-.28-1.43.17-.46.5-.41.98.1,1.46.2.19.28.49.5.9-1.75-.69-2.49-2.17-1.96-3.58.04-.11.05-.23.07-.35.27-1.84-1.11-4.15-2.82-4.8-.1,1.29-.06,2.63-.35,3.9-.28,1.24-.9,2.4-1.37,3.6-.14-.02-.28-.03-.42-.05-.12-.71-.22-1.43-.36-2.13-.04-.19-.18-.38-.32-.53-1.6-1.69-3.21-3.38-4.83-5.07.36-.3.91-.76,1.48-1.23-.89-1.98-2.69-3.67-1.68-6.28.16,1.15,1.63,1.56,1.27,2.93-.04.15.45.44.5.48,1.08-.7,2.02-1.78,2.91-1.74.93.04,1.81,1.16,2.78,1.85-.13-.99-1.01-2.13.62-2.97.32,2.55,2.53,2.28,4.15,2.89.58.22,1.09.23,1.81-.2.86-.51,2.21-.56,3.24-.32,2.16.5,4.5.53,6.26,2.34.72.74,1.99.96,3.07,1.44.45-1.56-.83-1.68-1.22-2.54.64.3,1.28.62,1.93.9.91.39,1.8.87,2.75,1.09.44.1,1.05-.23,1.47-.52.13-.09-.1-.7-.22-1.34-.48.51-.7.76-1,1.08-.72-.63-1.43-1.26-2.19-1.93.56-.91.09-1.37-1-1.67.14.47.25.81.47,1.51-.99-.6-1.71-1.01-2.41-1.48-.12-.08-.21-.39-.15-.53.63-1.4-.56-1.56-1.33-2.04,0-1.21-3.14-4.12-4.51-4.14q-.6-1.38-3.03-2c.22-.25.41-.46.65-.75-1.01-.4-1.95-.78-2.94-1.17.68-.53,1.89.46,2.12-.8.06-.34-.4-.78-.62-1.18-.04.12-.08.25-.13.37.09-.4.18-.8.29-1.29.27.04.68.11,1.34.22-.68-1.25-1.28-2.34-1.89-3.45.95-.32,1.24,1.47,2.33.41.36.42.79.92,1.41,1.66.03-.48.14-.77.04-.9-.47-.59-.97-1.16-1.5-1.69-.87-.88-1.16-1.91-1.02-3.38,1.16,1.32,2.16,2.45,3.15,3.57,1.28-.67,1.43-.56,1.94.78.25.64,1.08,1.23,1.03,1.78-.08.88.47,1.24.85,1.74.19.25.44,1.04,1.03.31.03-.04.22.02.31.07,1.49.85,2.97,1.71,4.45,2.57.07-.1.15-.2.22-.3-.72-.63-1.44-1.25-2.16-1.88.08-.11.15-.22.23-.32.27.15.53.31.8.44.56.28,1.14.54,1.7.83.68.36,1.5.6,2.01,1.13,1.8,1.9,4.19,2.72,6.5,3.57,2.1.78,4.37,1.13,6.58,1.53.75.14,1.6-.31,2.36-.18,3.1.5,5.29-1.46,7.71-2.75,1-.53,1.86-1.36,2.71-2.14.37-.35.54-.91.6-1.56-.55.27-1.07.6-1.65.79-.85.28-1.79.34-2.6.69-1.74.76-3.82-.02-5.47,1.4-.44.38-1.62-.1-2.46-.2-.52-.07-1.04-.18-1.56-.27-.02.1-.05.19-.07.29.34.12.68.24,1.02.36-.03.13-.07.25-.1.38-1.15-.37-2.29-.77-3.44-1.1-.76-.21-1.56-.29-2.33-.49-.52-.14-1.12-.26-1.51-.6-.94-.83-1.6-1.71-3.24-1.28-.82.21-2-.95-3.01-1.49l.17-.37c.68.14,1.36.27,2.17.43-.36-.65-.6-1.08-.94-1.67-2.58-.47-4.16-2.83-6.43-4.16.06-.11.13-.21.19-.32,1.02.62,2.02,1.27,3.07,1.84.4.22.97.14,1.37.37.81.47,1.56,1.04,2.31,1.59.54.39,1.01.88,1.59,1.21.25.14.67,0,.99-.29-.55-.25-1.11-.49-1.66-.74.01-.09.02-.19.03-.28.45,0,.92-.09,1.35.01,3.36.83,6.7,1.7,10.06,2.52.3.07.72-.03.99-.19.98-.58,1.71-.42,2.5.43.29.31,1.1.22,1.66.19.82-.05,1.68-.42,2.45-.29,1.38.24,2.15-.44,2.75-1.43.48-.8,1.08-1.31,1.99-1.57.38-.11.64-.6.95-.92l-.32-.39c-.39.19-.79.38-1.35.66.23-.46.4-.8.57-1.13-1.21,1.21-2.65,1.72-4.22,1.89l-.17-.4c.8-.3,1.59-.6,2.39-.9-.02-.09-.03-.17-.05-.26-.21-.02-.42-.03-.63-.05-.02-.11-.04-.21-.06-.32.82-.15,1.66-.49,2.46-.42,1.69.14,2.37-1,3.13-2.12.21-.31.42-.63.75-1.11-.75-.05-1.48-.09-2.22-.14-.04.08-.09.16-.13.24.31.25.61.5.93.75-.48,1.09-1.92,1.73-3.16,1.63-1.52-.12-3.06-.03-4.67.14.33.14.66.28,1,.42.01.08.02.15.03.23-.68.11-1.36.22-2.22.36.84.28,1.53.51,2.23.75-.99,1.88-2.96,2.13-5.63,1.19.05.21.08.36.15.69-.95-.34-1.81-.64-2.67-.94.02-.09.04-.19.06-.28.48.11.95.21,1.46.33-.82-1.03-1.19-1.11-2.32-1-1.63.15-2.83-.86-4.06-1.74-.26-.19-.63-.23-.94-.34h0Zm25.5-1.47c.16.19.31.38.42.51.6-.21,1.17-.42,1.86-.66-.9-.51-1.6-.4-2.25.18-.28-.41-.56-.83-1.02-1.52-.08.89-.12,1.37-.18,2.13.5-.27.84-.45,1.18-.63Zm-46.08,56.02c.29.2.58.4,1,.7.1-.82.18-1.45.25-2.09.46-.27.91-.73.84-1.06-.4-1.79-1.75-2.97-2.85-4.54-.19.3-.26.39-.32.49-.91,1.62-1.68,3.34-2.81,4.79-.45.58-.82.88-.55,1.61.16.44.22.92.39,1.66.6.16,1.5.6,2.4.59,1.26-.01.85-1.59,1.64-2.16Zm53.19-34.66c.09-.11.18-.22.27-.32-.77-.48-1.48-1.14-2.32-1.41-1.94-.64-3.72,0-5.27,1.17-.49.37-.73,1.07-1.08,1.62.66-.1,1.35-.08,1.96-.3,2.1-.75,4.17-1.53,6.44-.75Zm-3.99,16.94c-1.43-.29-2.58-.53-4.02-.82.62-.72,1.1-1.28,1.61-1.86-1.85-.11-4.08,1.36-4.64,3.1.76-.3,1.45-.57,2.3-.91-.13,1.56.73,1.53,1.67,1.46.63-.05,1.26,0,2.2,0,.1-.11.44-.47.88-.95Zm-36.45-13.86c.32.72.53,1.18.73,1.66.22.53.28,1.39.64,1.54.84.34,1.89,1.06,2.73-.21-.34-.42-.65-.83-.97-1.23-.25-.31-.73-.62-.71-.9.07-.97-.7-.99-1.23-1.12-.37-.1-.84.17-1.19.27Zm-6,2.98c-1.12-1.48-4.39-1.85-5.49-.65,1.77.71,3.48,1.4,5.19,2.09.11-.16.21-.31.32-.47-.5-.35-1.01-.69-1.51-1.04.05-.05.1-.1.15-.15.38.06.77.13,1.33.22Zm12.61-18.96c.47-.04.78-.07,1.08-.1,0-.1.01-.21.02-.31-1.17-.26-2.33-.51-3.5-.77l-.11.36c1.02.66,2.04,1.31,3.22,2.08-.28-.49-.47-.82-.71-1.26Zm23.37,7.6c-.06-.13-.12-.26-.18-.4q-2.66.28-2.9,1.48c1.13-.4,2.11-.74,3.08-1.08Zm-48.28,10.85c0,.07-.01.13-.02.2,2.16.41,4.32.82,6.48,1.23.02-.12.04-.23.06-.35l-6.52-1.08Zm46.72,6.05c-.94-.05-1.64,0-1.55,1.17.87.13,1.46-.04,1.55-1.17Zm-51.04,19.98c.19-.03.37-.06.56-.09-.09-.7-.17-1.39-.26-2.09-.17.02-.34.05-.51.07.07.7.14,1.4.21,2.11Zm58.28-18.24c.13.14.25.28.38.42.48-.43.95-.86,1.43-1.3-.09-.1-.18-.21-.27-.31-.51.39-1.03.79-1.54,1.18Z"/>
      <path d="m62.83,15.82c-1.49-.59-2.97-1.18-4.5-1.79.12.37.21.66.38,1.17-1.18-.15-2.17-.27-3.16-.4-.02.07-.04.15-.07.22.64.43,1.28.87,1.91,1.3-.04.06-.08.12-.12.18-1.26-.29-2.52-.57-3.93-.89.1.53.17.86.27,1.39h-2.66c.25.34.39.54.57.78-1.46-.04-4.53-2.26-5.07-3.72-1.06,1.43-1.89-.3-3.08-.17.35.37.6.63,1.07,1.13-1.51-.14-2.79-.26-4.42-.41.48.64.74.99,1.04,1.39h-3.1c-.03-.15-.1-.52-.15-.83.91-.29,1.73-.54,2.55-.81.74-.25,1.46-.53,2.19-.8.05.11.1.22.15.32.28-.4.57-.81.89-1.27-.36-.14-.7-.27-1.42-.55,1.32-.7,2.36-1.26,3.63-1.94-.39.61-.66,1.03-.94,1.45l.2.17c.41-.4.96-.72,1.22-1.2.92-1.74,2.5-2.34,4.26-2.56,2.04-.25,4.09-.35,6.14-.54.39-.03.78-.18,1.17-.19.39,0,.78.12,1.18.17.18.02.38.04.54-.02,1.67-.62,3.25-.56,4.91.19,1.17.53,2.5.73,3.85.82-.57-.23-1.14-.47-1.78-.73,1.85-.82,7.11,1.12,9.24,3.54-.91-.4-1.81-.81-2.72-1.2-.93-.41-1.86-.81-2.79-1.21-.11.13-.23.25-.34.38.34.51.69,1.01,1.17,1.72-.58-.18-1.12-.34-1.66-.5-.53-.16-1.06-.32-1.59-.48-.04.13-.09.27-.13.4.31.2.63.4,1.08.68-1.08.15-2.05.29-3.02.42.06.13.13.29.23.53-2.12-.29-4.18-.57-6.24-.85-.02.08-.04.17-.06.25.41.13.83.27,1.43.46-1.6.94-3.1.5-4.63.32,2.17,1.12,4.33,2.25,6.5,3.37-.06.11-.13.21-.19.32Zm-7.6-5.32c-.28-.42-.51-.76-.71-1.07-1.24.07-2.25.94-3.54.24-1.41-.76-1.72-.53-2.54,1.01.64.22,1.27.43,1.88.64.54-.65,1.5-.81,1.63-.28.27,1.13.74,1.33,1.7.73.17-.11.53.09.8.14.42.08.85.15,1.28.22.02-.11.04-.22.05-.33-.6-.13-1.19-.26-1.69-.37.35-.29.73-.59,1.14-.93Z"/>
      <path d="m30.48,67.84c-1.26-1.63-2.48-3.29-3.79-4.87-.54-.65-.99-.25-1.16.44-.22.91-.41,1.82-.66,2.98-1.53-1.47-.73-3.44-1.56-4.87.6-.17,1.23-.35,1.72-.49-.36-.8-.69-1.55-1.07-2.39,2.15-.41,3.91.09,5.41,1.16,1.48,1.06,2.76,2.38,4.13,3.59.62.55.86,1.14.15,1.77,2.31,2.5,2.05,7.4-.43,9.36-4.05-3.12-3.4-2.84-2.57-3.85.18.32.35.63.51.91.63-.45.02-3.19-.7-3.78l.03.03Z"/>
      <path d="m79.51,5.52c1.48-.15,2.97-.3,4.77-.48-.36.39-.49.53-.66.71,2.08.8,4.15,1.6,6.22,2.4-.02.13-.05.27-.07.4-4.18-1.28-8.38-2.45-12.81-1.76,1.4.31,2.8.61,4.21.92q-2.69-.29-2.4.82c-.47.03-.95.05-1.59.09.28.48.44.77.82,1.41-.89-.26-1.5-.35-2.02-.61-1.53-.76-3.03-1.58-4.53-2.42-.23-.13-.48-.49-.46-.71.02-.22.38-.41.61-.59,1.92-1.49,4.17-1.27,6.39-1.23,1.29.02,2.59,0,3.89,0,.01.14.02.27.03.41-.82.1-1.64.21-2.46.31.02.11.04.22.06.34Z"/>
      <path d="m56.93,72.05c.47-.1.95-.19,1.45-.29-.72,1.73-2.3,2.32-3.81,1.51-.26-.14-.4-.86-.29-1.22.15-.49.59-1.25.93-1.26,1.25-.04,1.87-.59,2.48-1.66.48-.84,1.48-1.4,2.29-2.03.18-.14.69-.13.83.02.16.18.23.67.09.86-.44.6-.97,1.14-1.49,1.67-.37.38-.78.71-1.2,1.04-.45.36-.93.69-1.4,1.04.04.1.07.21.11.31Z"/>
      <path d="m30.45,67.81c-.94.6-1.02.58-1.36-.27-.67,1.18-.45,1.74.84,1.94-.27.46-.53.89-.97,1.65-1.29-1.46-2.55-2.75-3.61-4.18-.22-.29.3-1.12.49-1.72.32.28.5.56.71.58,1.58.17,2.8,1.02,3.93,2.04,0,0-.03-.03-.03-.03Z"/>
      <path d="m30.37,25.16c.55-.9.99-1.61,1.44-2.32.13.07.26.15.4.22-.67,1.29-1.34,2.59-2.01,3.88-.2-.05-.4-.11-.6-.16.09-.67.45-1.47.21-1.99-.55-1.21.26-1.97.57-2.93.29-.93.72-1.34,1.72-1.13.28.06.61-.13.91-.2.77.99.65,1.32-.57,1.59-1.84.4-2.2.9-2.06,3.05Z"/>
      <path d="m69.88,34.32c.06,1.39,1.34,1.37,2.17,1.86.46.27,1.01.39,1.52.58-.03.15-.05.3-.08.44-.7-.09-1.9,0-2.01-.29-.39-1.08-1.44.26-1.83-.7-.28-.7-.91-1.27-1.35-1.84.33-.13,1.11,1.21,1.58-.05,0,0,0,0,0,0Z"/>
      <path d="m65.51,43.38c1.94-.66,2.88.77,4.14,1.3-1.63.56-2.85-.13-4.14-1.3Z"/>
      <path d="m75.4,37.96c-.11.13-.23.25-.42.47,1.09.09,2.06.17,3.03.25,0,.15,0,.29,0,.44-1.31,0-2.62.02-3.92-.01-.15,0-.33-.28-.41-.47-.03-.08.15-.31.29-.38.41-.23.84-.41,1.27-.61.06.11.11.21.17.32Z"/>
      <path d="m38.86,20.79c-.33-1.01-.66-2.02-.98-3.04.12-.05.24-.1.36-.15.44.19.95.31,1.29.61.22.2.36.73.25,1.01-.22.57-.62,1.07-.95,1.6l.04-.04Z"/>
      <path d="m87.95,19.01s.05-.05.05-.05c-1.49.6-3.83-.8-3.64-2.42.37.41.59.81.92.99.64.36,1.36.58,2.02.91.25.12.43.38.65.57Z"/>
      <path class="cls-1" d="m107.05,16.43c-.4,0-.95.17-1.19-.03-1.26-1.05-2.45-2.18-3.66-3.29.07-.08.13-.15.2-.23,1.56,1.21,3.12,2.42,4.68,3.63,0,0-.03-.09-.03-.09Z"/>
      <path d="m78.91,39.52c1.4-1.54,2.75.26,4.13-.05-1.39.75-2.75-.4-4.13.05Z"/>
      <path d="m74.54,46.67c-.9,0-1.81.04-2.7-.05-.11-.01-.16-.66-.28-1.21,1.17.41,2.1.73,3.03,1.05-.01.07-.03.14-.04.2Z"/>
      <path d="m68.6,36.42c-.77-.52-1.54-1.04-2.31-1.55.13-.19.25-.37.38-.56.76.52,1.52,1.05,2.28,1.57-.12.18-.23.36-.35.54Z"/>
      <path d="m38.83,20.82c1.27.17.72,1.19.96,2.12-.27-.33-.39-.47-.6-.73-.13.43-.23.77-.33,1.12-.06,0-.13-.01-.19-.02.06-.84.12-1.68.19-2.52,0,0-.03.03-.03.03Z"/>
      <path d="m54.35,16.13c.51.78.93,1.41,1.41,2.13-1.47-.16-1.9-.74-1.41-2.13Z"/>
      <path d="m30.55,32.76c.48.81.87,1.47,1.28,2.17-1.96-.79-1.96-.56-1.28-2.17Z"/>
      <path d="m39.35,47.01c-.74.16-1.43,1.07-2.41-.05.9-.16,1.66-.3,2.42-.44v.48Z"/>
      <path d="m47.69,16.77c.77.65,1.53,1.3,2.3,1.95-.1.12-.2.24-.3.36l-2.28-2c.1-.1.19-.2.29-.3Z"/>
      <path d="m34.81,19.46c-1.43-1,.49-1.5.27-2.31.14.02.28.04.42.06-.08.32-.14.65-.23.96-.12.39-.27.78-.45,1.29Z"/>
      <path class="cls-1" d="m49.31,88.88c-.79.57-.38,2.14-1.64,2.16-.89.01-1.79-.43-2.4-.59-.17-.74-.23-1.22-.39-1.66-.27-.73.09-1.03.55-1.61,1.13-1.45,1.9-3.18,2.81-4.79.06-.1.13-.2.32-.49,1.1,1.57,2.45,2.75,2.85,4.54.07.34-.37.79-.84,1.06-.08.63-.15,1.27-.25,2.09-.43-.3-.72-.5-1-.7Z"/>
      <path class="cls-1" d="m102.5,54.22c-2.27-.78-4.34,0-6.44.75-.61.22-1.31.21-1.96.3.35-.55.59-1.25,1.08-1.62,1.56-1.17,3.33-1.81,5.27-1.17.84.28,1.55.93,2.32,1.41-.09.11-.18.22-.27.32Z"/>
      <path class="cls-1" d="m98.5,71.15c-.44.47-.77.84-.88.95-.94,0-1.57-.04-2.2,0-.94.07-1.8.1-1.67-1.46-.86.34-1.54.61-2.3.91.55-1.74,2.79-3.21,4.64-3.1-.5.58-.99,1.14-1.61,1.86,1.43.29,2.59.53,4.02.82Z"/>
      <path class="cls-1" d="m62.05,57.3c.36-.09.82-.36,1.19-.27.53.14,1.29.16,1.23,1.12-.02.28.46.6.71.9.32.4.64.8.97,1.23-.84,1.27-1.89.55-2.73.21-.36-.15-.43-1.01-.64-1.54-.19-.48-.41-.94-.73-1.66Z"/>
      <path class="cls-1" d="m56.05,60.28c-.56-.09-.95-.16-1.33-.22-.05.05-.1.1-.15.15.5.35,1.01.69,1.51,1.04-.11.16-.21.31-.32.47-1.71-.69-3.42-1.37-5.19-2.09,1.09-1.2,4.36-.83,5.49.65Z"/>
      <path class="cls-1" d="m68.66,41.31c.25.43.43.76.71,1.26-1.18-.76-2.2-1.42-3.22-2.08l.11-.36c1.17.26,2.33.51,3.5.77,0,.1-.01.21-.02.31-.3.03-.61.06-1.08.1Z"/>
      <path class="cls-1" d="m92.04,48.91c-.97.34-1.95.68-3.08,1.08q.24-1.2,2.9-1.48c.06.13.12.26.18.4Z"/>
      <path class="cls-1" d="m43.76,59.76l6.52,1.08c-.02.12-.04.23-.06.35-2.16-.41-4.32-.82-6.48-1.23,0-.07.01-.13.02-.2Z"/>
      <path class="cls-1" d="m90.47,65.81c-.09,1.13-.68,1.3-1.55,1.17-.1-1.17.6-1.21,1.55-1.17Z"/>
      <path class="cls-1" d="m39.43,85.79c-.07-.7-.14-1.4-.21-2.11.17-.02.34-.05.51-.07.09.7.17,1.39.26,2.09-.19.03-.37.06-.56.09Z"/>
      <path class="cls-1" d="m95.42,32.89c.65-.58,1.35-.69,2.25-.18-.69.24-1.26.45-1.86.66-.11-.13-.26-.32-.42-.51,0,0,.03.03.03.03Z"/>
      <path class="cls-1" d="m97.71,67.55c.51-.39,1.03-.79,1.54-1.18.09.1.18.21.27.31-.48.43-.95.86-1.43,1.3-.13-.14-.25-.28-.38-.42Z"/>
      <path class="cls-1" d="m95.39,32.85c-.34.18-.68.36-1.18.63.06-.76.11-1.24.18-2.13.47.69.74,1.11,1.03,1.53,0,0-.03-.03-.03-.03Z"/>
      <path class="cls-1" d="m55.22,10.5c-.41.33-.79.64-1.14.93.49.11,1.09.24,1.69.37-.02.11-.04.22-.05.33-.43-.07-.85-.14-1.28-.22-.27-.05-.63-.25-.8-.14-.96.6-1.43.4-1.7-.73-.13-.53-1.09-.37-1.63.28-.61-.21-1.24-.42-1.88-.64.82-1.54,1.13-1.77,2.54-1.01,1.3.7,2.31-.17,3.54-.24.2.3.43.65.71,1.07Z"/>
    </g>
  </g>
</svg>